<svg width="24" height="24" viewBox="0 0 24 24" fill="none" xmlns="http://www.w3.org/2000/svg">
<path d="M20.9484 3.75656C20.9377 3.57308 20.86 3.39992 20.73 3.26996C20.6001 3.13999 20.4269 3.06228 20.2434 3.05156C13.1062 2.6325 7.38937 4.78125 4.95187 8.8125C4.10697 10.1915 3.69062 11.7903 3.75562 13.4062C3.79806 14.4396 4.0083 15.4592 4.37812 16.425C4.39986 16.4844 4.43628 16.5374 4.48399 16.579C4.53171 16.6206 4.58918 16.6494 4.65103 16.6628C4.71289 16.6761 4.77713 16.6736 4.83776 16.6555C4.8984 16.6374 4.95346 16.6042 4.99781 16.5591L12.9666 8.46844C13.0362 8.39875 13.119 8.34348 13.21 8.30577C13.3011 8.26805 13.3986 8.24864 13.4972 8.24864C13.5957 8.24864 13.6933 8.26805 13.7844 8.30577C13.8754 8.34348 13.9581 8.39875 14.0278 8.46844C14.0975 8.53812 14.1528 8.62084 14.1905 8.71189C14.2282 8.80293 14.2476 8.90051 14.2476 8.99906C14.2476 9.09761 14.2282 9.19519 14.1905 9.28623C14.1528 9.37728 14.0975 9.46 14.0278 9.52969L5.31937 18.3694L3.98906 19.6997C3.85071 19.8344 3.76811 20.0162 3.75769 20.209C3.74727 20.4018 3.80979 20.5915 3.93281 20.7403C4.00019 20.8183 4.08292 20.8816 4.17586 20.9262C4.26879 20.9709 4.36992 20.9958 4.47294 20.9996C4.57595 21.0034 4.67865 20.9859 4.7746 20.9482C4.87055 20.9106 4.95771 20.8535 5.03062 20.7806L6.60469 19.2066C7.93031 19.8478 9.26812 20.1975 10.5947 20.2444C10.6991 20.2481 10.8031 20.25 10.9069 20.25C12.4176 20.2539 13.8996 19.8378 15.1875 19.0481C19.2187 16.6106 21.3684 10.8947 20.9484 3.75656Z" fill="#4E8847"/>
</svg>
